<?xml version="1.0" encoding="UTF-8" standalone="no"?>
<!DOCTYPE svg PUBLIC "-//W3C//DTD SVG 1.1//EN" "http://www.w3.org/Graphics/SVG/1.1/DTD/svg11.dtd">
<svg xmlns="http://www.w3.org/2000/svg" xmlns:xlink="http://www.w3.org/1999/xlink" version="1.1" width="2406.8pt" height="1923.8pt" viewBox="0 0 2406.8 1923.8">
<g enable-background="new">
<g id="Layer-1" data-name="Layer">
<clipPath id="cp0">
<path transform="matrix(1,0,0,-1,0,1923.8)" d="M 0 1923.8 L 2406.8 1923.8 L 2406.8 0 L 0 0 Z "/>
</clipPath>
<g clip-path="url(#cp0)">
<path transform="matrix(1,0,0,-1,498.9668,1270.3457)" d="M 0 0 L -106.544 -38.928 L -112.214 -355.852 L 256.585 -221.128 C 129.985 -178.73 37.659 -104.005 0 0 " fill="#fdba46"/>
<path transform="matrix(1,0,0,-1,554.7354,935.14309)" d="M 0 0 L -369.73 -135.063 L -162.312 -374.215 L -55.769 -335.288 C -93.342 -231.621 -70.155 -114.583 0 0 " fill="#f89841"/>
<path transform="matrix(1,0,0,-1,1176.8198,477.74024)" d="M 0 0 C -470.773 -171.959 -774.326 -526.881 -677.853 -792.605 L 1026.935 -169.844 C 930.461 95.881 470.774 171.96 0 0 " fill="#fece44"/>
<path transform="matrix(1,0,0,-1,1525.8174,1440.2744)" d="M 0 0 C 470.773 171.96 774.834 525.272 677.853 792.605 L -1026.935 169.929 C -929.954 -97.489 -470.774 -171.96 -.001 0 " fill="#f37031"/>
<path transform="matrix(1,0,0,-1,2203.67,647.584)" d="M 0 0 L -1704.703 -622.762 C -1671.36 -714.835 -1543.999 -760.194 -1365.438 -760.194 C -1191.278 -760.194 -968.374 -717.12 -735.991 -632.24 C -265.218 -460.28 65.924 -181.777 0 0 " fill="#f89841"/>
<path transform="matrix(1,0,0,-1,1864.4053,510.23634)" d="M 0 0 C -174.075 0 -397.064 -43.075 -629.447 -127.955 C -1100.221 -299.914 -1431.362 -578.333 -1365.438 -760.109 L 339.35 -137.348 C 305.922 -45.275 178.645 0 0 0 " fill="#fdba46"/>
<path transform="matrix(1,0,0,-1,1770.2168,1625.2666)" d="M 0 0 L 0 -8.886 Z M 0 -17.771 C -50.184 -17.771 -124.146 27.503 -219.943 116.868 C -333.257 222.565 -462.988 377.432 -585.442 552.86 C -707.811 728.29 -808.347 903.635 -868.6 1046.737 C -934.185 1202.618 -943.579 1298.415 -896.442 1331.588 C -885.525 1339.035 -872.578 1342.843 -859.376 1342.504 C -821.041 1342.504 -746.231 1313.985 -608.037 1177.907 L -604.991 1174.945 L -605.414 1170.714 C -606.345 1160.897 -607.191 1151.081 -607.953 1141.349 L -609.476 1122.139 L -623.016 1135.764 C -771.958 1285.805 -837.458 1301.969 -858.784 1301.969 C -864.876 1301.969 -869.7 1300.784 -873.17 1298.33 C -893.649 1283.943 -895.003 1213.535 -831.365 1062.478 C -772.211 921.999 -673.114 749.277 -552.354 576.133 C -431.508 402.903 -303.723 250.408 -192.354 146.572 C -72.355 34.612 -18.279 22.511 -.593 22.511 C 5.5 22.511 10.408 23.78 14.132 26.403 C 35.712 41.552 35.712 116.953 -35.205 279.604 L -38.505 287.051 L -31.396 290.943 C -24.288 294.837 -17.349 298.645 -10.917 302.368 L -2.37 307.191 L 1.607 298.222 C 51.875 182.961 98.927 36.474 37.234 -6.854 C 26.318 -14.302 13.286 -18.11 -.001 -17.771 Z " fill="#f37031"/>
<path transform="matrix(1,0,0,-1,1537.2412,1435.3662)" d="M 0 0 L -.677 -8.801 C -12.609 -156.05 -43.921 -333.087 -125.669 -340.28 C -127.361 -340.45 -129.054 -340.45 -130.662 -340.45 C -186.177 -340.45 -238.729 -260.901 -286.712 -104.09 C -332.241 44.344 -367.53 243.554 -386.063 456.896 C -404.681 670.237 -404.427 872.577 -385.301 1026.681 C -364.483 1194.579 -324.878 1282.251 -267.502 1287.329 C -265.81 1287.498 -264.032 1287.583 -262.34 1287.583 C -222.058 1287.583 -161.381 1241.969 -99.266 1029.558 L -139.802 1021.772 C -160.535 1092.689 -183.13 1150.404 -205.556 1190.178 C -226.289 1226.821 -246.515 1247.046 -262.34 1247.046 C -262.848 1247.046 -263.355 1247.046 -263.948 1246.962 C -288.828 1244.762 -325.048 1184.508 -345.188 1021.688 C -363.976 870.377 -364.229 670.999 -345.866 460.449 C -327.502 249.815 -292.806 53.568 -248.123 -92.157 C -228.151 -157.404 -206.233 -211.226 -184.653 -247.7 C -164.851 -281.381 -145.641 -299.914 -130.662 -299.914 C -130.154 -299.914 -129.646 -299.914 -129.139 -299.829 C -105.359 -297.798 -60.508 -235.006 -41.636 -14.217 Z " fill="#f37031"/>
</g>
</g>
</g>
</svg>
